<?xml version="1.0" standalone="no"?>
<!DOCTYPE svg PUBLIC "-//W3C//DTD SVG 20010904//EN"
 "http://www.w3.org/TR/2001/REC-SVG-20010904/DTD/svg10.dtd">
<svg version="1.0" xmlns="http://www.w3.org/2000/svg"
 width="1024.000000pt" height="1024.000000pt" viewBox="0 0 1024.000000 1024.000000"
 preserveAspectRatio="xMidYMid meet">
<metadata>
Created by potrace 1.14, written by Peter Selinger 2001-2017
</metadata>
<g transform="translate(0.000000,1024.000000) scale(0.100000,-0.100000)"
fill="#000000" stroke="none">
<path d="M4740 8558 c-861 -81 -1667 -475 -2257 -1104 -599 -638 -924 -1413
-950 -2269 -14 -451 78 -943 252 -1360 32 -77 41 -105 30 -101 -85 32 -463 40
-595 12 -41 -9 -86 -24 -100 -35 -24 -18 -25 -22 -28 -162 -1 -79 0 -154 3
-167 4 -16 21 -30 50 -43 l45 -20 0 -92 c0 -160 -25 -224 -141 -359 -170 -198
-229 -340 -229 -554 0 -131 20 -208 75 -294 19 -30 40 -66 46 -80 18 -38 115
-117 186 -150 116 -55 204 -74 343 -73 235 0 380 51 505 176 77 77 121 151
150 252 22 73 16 287 -9 380 -30 106 -90 214 -182 325 -121 146 -143 196 -151
343 l-6 115 41 21 c64 33 72 51 72 166 l0 100 66 -120 c82 -149 173 -289 275
-423 l79 -103 -34 -72 c-58 -119 -86 -248 -96 -439 -11 -193 -1 -335 28 -400
27 -63 114 -162 180 -207 147 -99 428 -127 607 -60 121 45 241 150 286 249 23
50 32 57 58 41 11 -7 13 -27 8 -93 -10 -147 11 -188 132 -252 112 -59 253
-105 471 -155 849 -196 1910 -162 2640 83 118 40 212 91 260 141 l35 36 5 123
5 123 100 68 c55 38 134 93 175 124 41 31 83 62 92 69 17 12 17 11 7 -12 -13
-29 -1 -52 36 -66 14 -5 27 -26 38 -63 30 -95 113 -202 215 -279 237 -177 698
-226 1036 -112 232 79 400 263 436 477 24 145 -5 346 -71 487 -45 96 -80 149
-219 325 -221 281 -259 340 -307 480 -30 88 -42 195 -22 195 8 0 77 9 154 20
77 11 142 20 145 20 3 0 12 -16 18 -35 29 -78 125 -112 186 -64 54 43 71 93
71 214 0 103 -2 114 -29 162 -29 53 -71 83 -118 83 -38 0 -89 -38 -106 -80
l-17 -40 -140 0 c-77 0 -146 4 -154 9 -18 12 -10 73 43 306 59 263 79 452 80
725 0 543 -115 1026 -361 1521 -179 361 -375 632 -673 930 -299 300 -578 503
-942 685 -387 194 -796 312 -1227 354 -122 12 -467 11 -601 -2z m585 -98 c375
-33 756 -133 1105 -292 103 -48 306 -159 392 -216 39 -26 85 -55 102 -65 53
-32 166 -120 166 -131 0 -5 3 -6 6 -3 18 17 341 -276 486 -442 126 -143 209
-248 187 -237 -7 4 -3 -1 11 -13 14 -11 25 -24 25 -28 0 -5 10 -19 23 -33 12
-13 22 -32 22 -42 0 -10 7 -21 15 -24 31 -12 196 -299 287 -499 141 -310 225
-609 274 -970 19 -143 26 -559 11 -697 l-9 -76 -31 18 c-48 28 -121 41 -227
41 -117 0 -202 -22 -254 -63 l-39 -32 -176 17 c-97 10 -182 17 -188 17 -7 0
-13 9 -13 19 0 35 -41 72 -86 78 -104 14 -244 -125 -244 -241 0 -36 6 -52 30
-79 16 -19 43 -37 59 -40 45 -9 102 12 137 50 l32 34 208 -20 c115 -11 223
-22 239 -23 l30 -3 17 -160 c9 -88 17 -184 17 -212 l1 -53 -237 0 -238 0 -20
37 c-28 51 -68 78 -114 77 -74 -2 -120 -49 -147 -149 -33 -122 4 -300 67 -320
18 -6 19 -25 19 -618 l0 -612 -88 -67 c-144 -111 -225 -169 -264 -189 l-37
-19 -16 35 c-29 61 -116 112 -275 163 -52 17 -112 33 -133 37 -30 6 -37 11
-34 24 61 189 71 442 27 618 -41 159 -70 213 -275 503 -60 85 -127 182 -150
215 -22 33 -52 76 -66 95 -177 242 -199 278 -199 324 0 45 1 46 33 46 58 0
161 27 232 61 90 42 190 140 234 230 57 118 65 175 65 469 1 243 -1 272 -22
354 -53 209 -168 337 -343 382 -73 19 -177 14 -248 -11 -24 -8 -45 -15 -48
-15 -2 0 -2 273 0 608 3 444 7 626 17 678 l13 70 121 13 c227 23 426 73 481
119 53 44 69 101 43 157 -22 50 -108 87 -253 110 -126 20 -407 45 -433 38 -38
-9 -23 -44 23 -56 11 -2 -241 -5 -560 -4 -319 0 -569 2 -555 4 31 6 50 21 50
39 0 19 -115 19 -297 -1 -292 -31 -415 -77 -423 -160 -14 -134 108 -196 475
-242 l134 -16 12 -46 c8 -31 13 -195 16 -506 l4 -460 -45 -24 c-66 -34 -139
-116 -164 -184 -19 -49 -22 -79 -22 -195 l0 -138 -92 -12 c-209 -26 -339 -149
-405 -382 -15 -55 -18 -103 -18 -315 0 -224 3 -259 22 -337 30 -115 75 -205
139 -276 102 -113 185 -152 342 -161 l103 -6 -53 -77 c-29 -43 -101 -144 -159
-225 -131 -183 -290 -410 -310 -443 -31 -49 -78 -180 -94 -261 -24 -119 -17
-423 13 -524 22 -74 19 -85 -25 -85 -26 0 -185 -52 -258 -85 -64 -28 -123 -79
-144 -125 -15 -34 -16 -29 -22 151 -11 303 -62 463 -225 694 -42 61 -83 124
-90 142 -11 24 -14 92 -14 265 l0 232 50 46 c53 49 62 79 38 123 -17 34 -37
45 -109 61 -199 46 -528 19 -574 -47 -8 -12 -15 -40 -15 -64 0 -38 5 -46 45
-80 l45 -37 0 -228 c0 -177 -3 -236 -14 -263 -21 -50 -106 -166 -117 -160 -5
3 -49 62 -99 131 -312 429 -506 905 -596 1459 -26 158 -28 191 -28 470 -1 236
3 327 17 425 102 711 407 1349 886 1855 343 360 709 619 1161 818 311 137 714
237 1065 266 147 12 422 12 560 1z m914 -1099 c59 -42 50 -90 -24 -125 -134
-64 -669 -110 -1180 -103 -617 8 -1031 64 -1067 142 -16 35 -2 72 34 91 29 15
58 15 337 4 335 -14 1589 -7 1716 9 98 12 148 7 184 -18z m-1182 -316 c18 -6
6 -33 -34 -78 -46 -52 -53 -74 -53 -179 0 -136 38 -195 136 -206 58 -6 100 13
135 61 90 124 -46 288 -181 218 -38 -20 -40 -20 -40 -2 0 10 15 37 33 61 17
24 38 51 45 60 7 10 14 27 15 39 2 27 14 29 281 35 l219 5 -7 -47 c-16 -113
-26 -351 -26 -659 0 -183 -4 -333 -8 -333 -4 0 -23 15 -41 34 -18 19 -64 48
-103 66 -60 28 -87 34 -196 42 -159 12 -363 -3 -494 -36 -51 -13 -100 -27
-110 -31 -15 -6 -17 28 -22 427 -3 238 -8 457 -12 485 l-6 53 229 -6 c125 -3
234 -7 240 -9z m136 -255 c58 -65 11 -160 -79 -160 -16 0 -39 13 -60 34 -47
47 -46 86 1 133 32 32 40 35 73 30 24 -4 47 -17 65 -37z m-243 -754 c0 -16 -8
-27 -27 -34 -41 -17 -264 -72 -288 -72 -21 0 -45 17 -45 33 0 12 76 43 144 58
45 10 54 15 40 21 -12 5 -6 6 16 3 19 -3 49 -1 65 4 17 5 45 10 63 10 27 1 32
-2 32 -23z m-306 -216 c28 -10 66 -64 66 -92 0 -26 -48 -76 -81 -83 -88 -20
-142 119 -65 166 35 22 45 23 80 9z m1361 -175 c100 -48 187 -172 225 -320 17
-68 20 -110 20 -314 -1 -263 -12 -357 -54 -440 -52 -101 -148 -185 -254 -222
-65 -23 -305 -38 -612 -39 -96 0 -181 -4 -188 -9 -8 -5 -12 -21 -10 -37 l3
-29 268 -3 267 -2 0 -168 0 -168 -29 -46 c-47 -73 -137 -129 -256 -157 -74
-18 -491 -26 -566 -12 -34 7 -63 11 -65 8 -2 -2 -6 -17 -10 -33 -6 -29 -4 -31
48 -43 122 -29 486 -22 634 14 92 21 173 64 225 116 65 67 83 109 89 209 l5
85 84 -120 c46 -66 110 -156 141 -200 166 -234 301 -437 328 -490 16 -33 42
-98 58 -145 25 -76 28 -102 32 -255 3 -142 0 -186 -16 -268 -39 -187 -137
-340 -266 -412 -116 -64 -374 -121 -663 -146 -187 -15 -637 -7 -798 16 -166
23 -362 61 -430 85 -176 60 -292 205 -351 435 -34 135 -37 358 -5 478 33 126
83 236 147 327 33 47 110 154 170 238 60 85 143 202 184 261 41 59 89 125 107
147 l32 39 1 -80 c0 -66 4 -87 23 -119 l24 -38 22 28 c15 19 20 35 15 49 -10
30 -4 773 7 825 16 74 67 141 136 178 74 39 170 52 398 52 255 1 378 32 456
117 75 82 83 112 89 333 6 211 11 236 62 273 57 42 187 43 273 2z m-1660 -248
c24 -18 12 -25 -71 -43 -36 -7 -87 -26 -115 -41 -173 -93 -254 -375 -200 -688
11 -66 25 -136 31 -155 15 -50 12 -80 -7 -87 -28 -11 -48 29 -67 128 -42 229
-33 514 20 654 8 19 7 19 -10 3 -36 -36 -36 -15 0 33 21 27 25 29 21 12 -7
-31 -1 -29 17 5 24 47 97 122 139 143 42 22 142 47 193 48 16 1 38 -5 49 -12z
m-305 -61 c0 -2 -7 -6 -15 -10 -8 -3 -15 -1 -15 4 0 6 7 10 15 10 8 0 15 -2
15 -4z m3967 -713 c-4 -4 6 -12 23 -19 39 -17 41 -39 3 -29 -29 7 -63 32 -63
47 0 4 10 8 22 8 12 0 18 -3 15 -7z m368 -250 c-8 -101 -34 -322 -41 -349 -7
-26 -43 -34 -154 -34 -111 0 -149 9 -155 34 -8 31 -44 410 -39 415 2 2 25 -2
51 -10 61 -18 214 -15 273 4 73 24 72 26 65 -60z m-5439 -524 c34 -6 71 -17
81 -24 16 -12 14 -17 -29 -62 l-46 -50 -7 -168 c-9 -192 0 -341 22 -397 8 -21
49 -84 90 -141 92 -127 145 -233 180 -362 26 -93 28 -113 28 -300 0 -190 -1
-203 -25 -265 -30 -78 -127 -183 -205 -222 -99 -50 -284 -67 -433 -39 -87 15
-178 71 -254 153 -80 86 -92 131 -91 343 0 191 9 259 50 395 33 111 70 184
153 300 119 166 114 151 118 410 5 262 -1 293 -58 348 -22 20 -40 40 -40 44 0
12 41 30 89 38 71 12 307 11 377 -1z m4754 -79 c96 -11 195 -22 219 -26 l43
-6 -6 -58 c-15 -130 -79 -270 -184 -400 -37 -45 -74 -93 -83 -106 -8 -13 -38
-49 -67 -81 -28 -32 -69 -82 -91 -112 -22 -29 -43 -56 -46 -59 -3 -3 -5 191
-5 431 l0 437 23 0 c12 0 101 -9 197 -20z m640 -92 c0 -55 40 -189 80 -268 32
-63 128 -196 278 -384 163 -204 226 -327 258 -494 22 -120 16 -267 -16 -342
-33 -78 -103 -174 -160 -219 -106 -84 -276 -141 -478 -161 -180 -18 -436 21
-565 87 -149 75 -271 203 -323 339 -38 99 -44 233 -15 329 48 164 126 287 361
575 125 153 174 224 211 305 32 71 69 204 69 249 l0 31 150 0 150 0 0 -47z
m-7085 -78 c11 -18 -26 -23 -43 -6 -15 15 -14 16 10 16 15 0 30 -5 33 -10z
m285 -336 c63 4 130 9 148 12 l32 6 0 -58 c1 -169 37 -271 136 -389 165 -195
210 -295 221 -485 7 -127 -5 -194 -54 -291 -48 -96 -120 -167 -213 -212 -93
-44 -154 -57 -295 -64 -421 -20 -684 274 -600 669 21 101 92 228 196 354 127
152 150 204 160 358 4 67 8 121 8 122 1 0 34 -6 74 -13 51 -10 106 -13 187 -9z"/>
<path d="M5372 4123 c-91 -45 -107 -166 -31 -239 27 -26 37 -29 99 -29 77 0
98 13 131 77 24 46 24 72 0 124 -34 75 -123 105 -199 67z m136 -68 c39 -46 26
-112 -28 -140 -43 -22 -68 -19 -101 14 -42 43 -41 99 3 136 26 22 39 26 67 21
21 -3 45 -16 59 -31z"/>
<path d="M4943 3544 c-46 -23 -80 -60 -93 -100 -6 -19 -16 -34 -21 -34 -6 0
-40 -18 -77 -40 -56 -34 -68 -46 -78 -80 -7 -22 -9 -40 -6 -40 3 0 41 27 86
61 l81 61 15 -23 c50 -77 98 -109 161 -109 45 0 111 42 134 84 22 41 26 42 85
21 50 -18 108 -19 147 -4 43 17 152 14 196 -5 21 -9 60 -32 87 -52 27 -19 64
-38 83 -41 29 -4 40 0 73 29 22 20 50 41 63 48 31 16 89 7 149 -24 59 -30 106
-40 128 -28 15 9 15 11 -3 29 -32 32 -167 83 -221 84 -64 2 -90 -7 -135 -47
-20 -19 -41 -34 -45 -34 -4 0 -40 20 -80 45 -39 25 -99 52 -132 62 -56 15 -65
15 -138 0 -101 -22 -106 -22 -177 8 -47 20 -65 34 -80 63 -34 63 -140 98 -202
66z m144 -48 c77 -64 50 -189 -45 -216 -49 -13 -89 -2 -128 37 -28 27 -34 41
-34 74 0 78 51 128 132 129 35 0 54 -6 75 -24z"/>
<path d="M4087 3313 c-14 -13 -6 -22 76 -81 120 -87 187 -105 320 -83 59 10
80 27 35 28 -18 1 -71 6 -117 12 -79 10 -91 15 -176 71 -84 56 -122 70 -138
53z"/>
<path d="M5287 3200 c-67 -58 -69 -147 -5 -209 56 -55 135 -53 193 4 58 59 56
141 -5 200 -24 23 -41 30 -88 33 -55 4 -61 2 -95 -28z m157 -19 c24 -21 46
-65 46 -91 0 -34 -28 -79 -61 -96 -40 -20 -88 -12 -130 23 -29 25 -31 30 -27
80 5 60 26 89 72 102 38 11 75 4 100 -18z"/>
<path d="M5293 2840 c-46 -28 -67 -65 -67 -119 0 -148 200 -194 266 -61 23 46
23 87 -2 128 -42 68 -132 92 -197 52z m133 -29 c67 -41 70 -135 5 -178 -39
-27 -68 -29 -117 -8 -70 29 -79 121 -17 175 40 35 83 39 129 11z"/>
<path d="M5634 2801 c-59 -36 -80 -140 -39 -198 18 -26 75 -53 112 -53 63 0
133 72 133 138 0 101 -119 166 -206 113z m150 -52 c24 -27 27 -38 23 -73 -4
-29 -15 -49 -38 -70 -27 -24 -38 -27 -73 -23 -54 8 -96 52 -96 103 0 28 8 44
35 71 32 32 39 35 78 30 30 -4 50 -15 71 -38z"/>
<path d="M4773 2725 c-82 -50 -107 -169 -52 -249 70 -102 223 -107 295 -9 51
69 51 150 -1 219 -51 67 -164 85 -242 39z m192 -36 c103 -91 45 -259 -90 -259
-107 0 -175 92 -140 190 27 78 57 98 142 99 45 1 57 -4 88 -30z"/>
<path d="M5173 2500 c-42 -25 -63 -68 -63 -125 0 -81 49 -135 129 -142 62 -6
108 21 139 78 53 99 -14 209 -128 209 -27 0 -58 -8 -77 -20z m138 -27 c67 -40
70 -135 6 -189 -43 -37 -109 -30 -149 15 -47 52 -34 145 23 177 33 18 86 17
120 -3z"/>
<path d="M5742 2470 c-93 -57 -94 -185 -2 -247 117 -80 272 68 205 197 -34 65
-136 91 -203 50z m137 -24 c58 -31 69 -115 20 -170 -56 -65 -148 -56 -182 17
-22 46 -21 75 3 115 31 51 101 68 159 38z"/>
<path d="M2690 3675 c14 -8 48 -14 75 -14 28 0 61 6 75 14 23 13 17 14 -75 14
-92 0 -98 -1 -75 -14z"/>
<path d="M2400 2761 c-10 -19 -11 -67 -2 -85 5 -9 25 33 36 77 8 33 -17 39
-34 8z"/>
<path d="M2522 2729 c3 -22 11 -25 83 -38 47 -8 160 -14 273 -15 178 -1 191
-2 173 -17 -22 -18 -36 -98 -46 -264 -11 -171 -33 -230 -112 -306 -80 -78
-121 -94 -238 -94 -101 0 -173 14 -198 39 -16 17 -72 46 -87 46 -18 0 21 -58
67 -100 87 -81 220 -119 366 -105 156 15 247 64 324 176 48 70 57 118 50 292
-7 173 -41 348 -72 371 -13 9 -79 15 -229 20 -116 3 -244 9 -284 13 -73 6 -74
6 -70 -18z"/>
<path d="M2323 2240 c0 -30 2 -43 4 -27 2 15 2 39 0 55 -2 15 -4 2 -4 -28z"/>
<path d="M8003 2839 c-7 -7 -13 -22 -13 -33 0 -20 6 -21 148 -22 116 -2 175
-7 277 -28 148 -31 235 -56 235 -68 0 -5 19 -7 43 -4 23 2 46 5 51 5 5 1 1 10
-9 21 -25 28 -162 78 -290 106 -135 30 -422 45 -442 23z"/>
<path d="M7719 2797 c-37 -12 -77 -30 -90 -39 l-24 -17 35 0 c19 0 55 4 78 7
37 6 46 12 57 40 8 17 13 32 12 31 -1 0 -32 -10 -68 -22z"/>
<path d="M7632 2445 c0 -16 2 -22 5 -12 2 9 2 23 0 30 -3 6 -5 -1 -5 -18z"/>
<path d="M8648 2363 c7 -3 16 -2 19 1 4 3 -2 6 -13 5 -11 0 -14 -3 -6 -6z"/>
<path d="M7690 2336 c0 -14 63 -36 97 -35 l38 2 -45 6 c-25 4 -55 12 -67 19
-13 7 -23 10 -23 8z"/>
<path d="M8648 2213 c6 -2 18 -2 25 0 6 3 1 5 -13 5 -14 0 -19 -2 -12 -5z"/>
<path d="M7639 2095 c-1 -5 -1 -13 0 -17 0 -5 -3 -8 -9 -8 -5 0 -10 -4 -10 -9
0 -5 10 -7 23 -3 19 5 20 3 9 -10 -11 -14 -10 -16 9 -11 17 5 20 3 14 -8 -7
-12 -6 -12 9 0 17 14 17 15 -3 23 -12 4 -26 18 -31 30 -5 13 -10 19 -11 13z"/>
<path d="M8749 2053 c-13 -16 -12 -17 4 -4 16 13 21 21 13 21 -2 0 -10 -8 -17
-17z"/>
<path d="M7895 1961 c19 -8 18 -9 -5 -12 -14 -3 -24 -10 -22 -17 1 -6 -5 -12
-15 -12 -34 0 -4 -10 77 -26 90 -17 106 -12 91 27 -5 13 -10 20 -10 15 -1 -5
-9 -2 -18 5 -14 12 -16 12 -8 0 6 -11 3 -13 -16 -8 -13 4 -28 7 -33 7 -4 0 -6
7 -2 15 4 11 -2 15 -27 14 -26 0 -28 -2 -12 -8z"/>
<path d="M8506 1939 c3 -5 -1 -9 -9 -9 -8 0 -20 -7 -27 -15 -17 -20 7 -29 41
-16 13 5 18 10 12 10 -7 1 -13 5 -13 11 0 5 7 7 15 4 8 -4 15 -2 15 4 0 5 -9
12 -20 15 -11 3 -18 1 -14 -4z"/>
<path d="M8418 1883 c6 -2 18 -2 25 0 6 3 1 5 -13 5 -14 0 -19 -2 -12 -5z"/>
<path d="M8048 1873 c6 -2 18 -2 25 0 6 3 1 5 -13 5 -14 0 -19 -2 -12 -5z"/>
<path d="M8343 1873 c9 -2 23 -2 30 0 6 3 -1 5 -18 5 -16 0 -22 -2 -12 -5z"/>
<path d="M8157 1863 c18 -2 50 -2 70 0 21 2 7 4 -32 4 -38 0 -55 -2 -38 -4z"/>
<path d="M1337 2379 c-133 -16 -152 -22 -155 -48 -4 -24 -3 -24 60 -17 34 3
126 9 203 12 123 6 159 3 294 -20 113 -18 159 -23 173 -15 95 51 -339 117
-575 88z"/>
</g>
</svg>
